# xmcd
# Track frame offsets:
# 150
# 13820
# 31137
# 45325
# 55487
# 66590
# 83317
# 97617
# 109575
# 122912
# 130340
# 141915
# 155600
# 169607
# 184237
# 204112
# 220240
# 230787
# 245937
# 261962
# 273440
# 282552
#
# Disc length: 3940 seconds
# Revision: 0
# Processed by: cddbd v1.5.2PL0 Copyright (c) Steve Scherf et al.
# Submitted via: VisiTrax 2.10.3.257 - For more info visit www.synapsa.com
#
DISCID=440f6216
DTITLE=Various Artist - Country Gospel Gold
DYEAR=1900
DGENRE=
TTITLE0=Jeannie Seely - One day at a time
TTITLE1=Kenny Price - Steal Away
TTITLE2=Sandy Posey - Put your hand in the hand
TTITLE3=Frankie Laine - I believe
TTITLE4=Ned Miller - Will the circle be unbroken
TTITLE5=Skeeter Davis - Oh happy day
TTITLE6=Kenny Price - Peace in the valley
TTITLE7=Jeanne Pruett - Swing low, sweet chariot
TTITLE8=Bobby Helms - What a friend we have in jesus
TTITLE9=Stonewall Jackson - Mary don't you weep
TTITLE10=Bill Phillips - I saw the light
TTITLE11=Warner Mack - Amazing grace
TTITLE12=Susan Raye - You can't be a beacon
TTITLE13=George Jones - Family bible
TTITLE14=Ferlin Husky - Just a closer walk with thee
TTITLE15=Marion Worth - How great thou art
TTITLE16=Ferlin Husky - The wings of a dove
TTITLE17=Jack Greene - Why me lord?
TTITLE18=Bill Phillips - The old rugged cross
TTITLE19=Marion Worth - Crying in the chapel
TTITLE20=Pat Boone - A wonderful time up there
TTITLE21=The Oak Ridge Boys - The old country church
EXTD=
EXTT0=
EXTT1=
EXTT2=
EXTT3=
EXTT4=
EXTT5=
EXTT6=
EXTT7=
EXTT8=
EXTT9=
EXTT10=
EXTT11=
EXTT12=
EXTT13=
EXTT14=
EXTT15=
EXTT16=
EXTT17=
EXTT18=
EXTT19=
EXTT20=
EXTT21=
PLAYORDER=
